<svg width="14" height="14" viewBox="0 0 14 14" fill="none" xmlns="http://www.w3.org/2000/svg">
<g clip-path="url(#clip0_5_389)">
<path d="M5.25033 7L6.41699 8.16667L9.04199 5.54167M4.27836 2.22757C4.74726 2.19015 5.19241 2.00577 5.55043 1.70066C6.38591 0.98867 7.61474 0.98867 8.45022 1.70066C8.80824 2.00577 9.25339 2.19015 9.72229 2.22757C10.8165 2.31489 11.6854 3.1838 11.7728 4.27803C11.8102 4.74694 11.9946 5.19208 12.2997 5.55011C13.0117 6.38559 13.0117 7.61441 12.2997 8.44989C11.9946 8.80792 11.8102 9.25307 11.7728 9.72197C11.6854 10.8162 10.8165 11.6851 9.72229 11.7724C9.25339 11.8098 8.80824 11.9942 8.45022 12.2993C7.61474 13.0113 6.38591 13.0113 5.55043 12.2993C5.19241 11.9942 4.74726 11.8098 4.27836 11.7724C3.18413 11.6851 2.31522 10.8162 2.2279 9.72197C2.19048 9.25307 2.00609 8.80792 1.70099 8.44989C0.988994 7.61441 0.988994 6.38559 1.70099 5.55011C2.00609 5.19208 2.19048 4.74694 2.2279 4.27803C2.31522 3.1838 3.18413 2.31489 4.27836 2.22757Z" stroke="black" stroke-linecap="round" stroke-linejoin="round"/>
</g>
<defs>
<clipPath id="clip0_5_389">
<rect width="14" height="14" fill="white"/>
</clipPath>
</defs>
</svg>
