<svg width="13" height="13" viewBox="0 0 13 13" fill="none" xmlns="http://www.w3.org/2000/svg">
<path d="M4.60416 7.94446C4.60416 8.64248 5.17002 9.20834 5.86805 9.20834H7.04166C7.78955 9.20834 8.39583 8.60206 8.39583 7.85418C8.39583 7.10629 7.78955 6.50001 7.04166 6.50001H5.95833C5.21044 6.50001 4.60416 5.89373 4.60416 5.14584C4.60416 4.39796 5.21044 3.79168 5.95833 3.79168H7.13194C7.82997 3.79168 8.39583 4.35754 8.39583 5.05557M6.5 2.97918V3.79168M6.5 9.20834V10.0208M11.9167 6.50001C11.9167 9.49155 9.49154 11.9167 6.5 11.9167C3.50845 11.9167 1.08333 9.49155 1.08333 6.50001C1.08333 3.50847 3.50845 1.08334 6.5 1.08334C9.49154 1.08334 11.9167 3.50847 11.9167 6.50001Z" stroke="black" stroke-linecap="round" stroke-linejoin="round"/>
</svg>
