<svg width="30" height="31" viewBox="0 0 30 31" fill="none" xmlns="http://www.w3.org/2000/svg">
<path d="M6.65639 30.0061C10.3326 30.0061 13.3128 27.026 13.3128 23.3498C13.3128 19.6735 10.3326 16.6934 6.65639 16.6934C2.98017 16.6934 0 19.6735 0 23.3498C0 27.026 2.98017 30.0061 6.65639 30.0061Z" fill="#F4CE00"/>
<path d="M0.385986 6.66252C0.385986 10.3306 3.38657 13.325 7.0485 13.325H11.2003C13.1109 13.325 14.4642 14.3599 14.9174 14.758C14.9725 14.807 15.0276 14.8621 15.0827 14.9172C15.1378 14.9723 15.1868 15.0274 15.2419 15.0825C15.64 15.5357 16.6749 16.8829 16.6749 18.7996V22.9514C16.6749 26.6194 19.6754 29.6139 23.3374 29.6139C27.0054 29.6139 29.9999 26.6133 29.9999 22.9514V6.66252C29.9999 2.99446 26.9993 0 23.3374 0H7.0485C3.38657 0 0.385986 2.99446 0.385986 6.66252Z" fill="#B390F9"/>
</svg>
