<svg width="32" height="26" viewBox="0 0 32 26" fill="none" xmlns="http://www.w3.org/2000/svg">
<path d="M13.0612 24.05C13.0612 24.1042 13.068 24.2396 13.0816 24.4562C13.0952 24.6729 13.0986 24.8523 13.0918 24.9945C13.085 25.1367 13.0646 25.2958 13.0306 25.4719C12.9966 25.6479 12.9286 25.7799 12.8265 25.868C12.7245 25.956 12.585 26 12.4082 26H5.87755C4.2585 26 2.87415 25.4279 1.72449 24.2836C0.57483 23.1393 0 21.7615 0 20.15V5.85C0 4.23854 0.57483 2.86068 1.72449 1.71641C2.87415 0.572135 4.2585 0 5.87755 0H12.4082C12.585 0 12.7381 0.0643229 12.8673 0.192969C12.9966 0.321615 13.0612 0.473958 13.0612 0.65C13.0612 0.704167 13.068 0.839583 13.0816 1.05625C13.0952 1.27292 13.0986 1.45234 13.0918 1.59453C13.085 1.73672 13.0646 1.89583 13.0306 2.07187C12.9966 2.24792 12.9286 2.37995 12.8265 2.46797C12.7245 2.55599 12.585 2.6 12.4082 2.6H5.87755C4.97959 2.6 4.21088 2.91823 3.57143 3.55469C2.93197 4.19115 2.61224 4.95625 2.61224 5.85V20.15C2.61224 21.0437 2.93197 21.8089 3.57143 22.4453C4.21088 23.0818 4.97959 23.4 5.87755 23.4H12.2449L12.4796 23.4203L12.7143 23.4812L12.8776 23.593L13.0204 23.7758L13.0612 24.05ZM32 13C32 13.3521 31.8707 13.6568 31.6122 13.9141L20.5102 24.9641C20.2517 25.2214 19.9456 25.35 19.5918 25.35C19.2381 25.35 18.932 25.2214 18.6735 24.9641C18.415 24.7068 18.2857 24.4021 18.2857 24.05V18.2H9.14286C8.78912 18.2 8.48299 18.0714 8.22449 17.8141C7.96599 17.5568 7.83673 17.2521 7.83673 16.9V9.1C7.83673 8.74792 7.96599 8.44323 8.22449 8.18594C8.48299 7.92865 8.78912 7.8 9.14286 7.8H18.2857V1.95C18.2857 1.59792 18.415 1.29323 18.6735 1.03594C18.932 0.778646 19.2381 0.65 19.5918 0.65C19.9456 0.65 20.2517 0.778646 20.5102 1.03594L31.6122 12.0859C31.8707 12.3432 32 12.6479 32 13Z" fill="white"/>
</svg>
