<svg width="94" height="96" viewBox="0 0 94 96" fill="none" xmlns="http://www.w3.org/2000/svg">
<path d="M1.56348 26C1.56348 17.5992 1.56348 13.3988 3.19838 10.1901C4.63648 7.36771 6.93119 5.073 9.75362 3.6349C12.9623 2 17.1627 2 25.5635 2H67.5635C75.9643 2 80.1647 2 83.3733 3.6349C86.1958 5.073 88.4905 7.36771 89.9286 10.1901C91.5635 13.3988 91.5635 17.5992 91.5635 26V53C91.5635 61.4008 91.5635 65.6012 89.9286 68.8099C88.4905 71.6323 86.1958 73.927 83.3733 75.3651C80.1647 77 75.9643 77 67.5635 77H54.9822C51.862 77 50.3018 77 48.8096 77.3063C47.4856 77.578 46.2045 78.0274 45.0009 78.6423C43.6443 79.3353 42.4261 80.3099 39.9895 82.2592L28.0623 91.801C25.9818 93.4653 24.9416 94.2975 24.0662 94.2984C23.3048 94.2993 22.5846 93.9531 22.1096 93.3581C21.5635 92.6739 21.5635 91.3418 21.5635 88.6775V77C16.9136 77 14.5887 77 12.6812 76.4889C7.50481 75.1019 3.4616 71.0587 2.07459 65.8823C1.56348 63.9748 1.56348 61.6499 1.56348 57V26Z" fill="#B390F9"/>
<path d="M29.0635 49.5C29.0635 49.5 35.626 57 46.5635 57C57.501 57 64.0635 49.5 64.0635 49.5" fill="#B390F9"/>
<path d="M62.8135 24.5C62.8135 25.8807 61.6942 27 60.3135 27C58.9328 27 57.8135 25.8807 57.8135 24.5C57.8135 23.1193 58.9328 22 60.3135 22C61.6942 22 62.8135 23.1193 62.8135 24.5Z" fill="#B390F9"/>
<path d="M35.3135 24.5C35.3135 25.8807 34.1942 27 32.8135 27C31.4328 27 30.3135 25.8807 30.3135 24.5C30.3135 23.1193 31.4328 22 32.8135 22C34.1942 22 35.3135 23.1193 35.3135 24.5Z" fill="#B390F9"/>
<path d="M29.0635 49.5C29.0635 49.5 35.626 57 46.5635 57C57.501 57 64.0635 49.5 64.0635 49.5M60.3135 24.5H60.3635M32.8135 24.5H32.8635M21.5635 77V88.6775C21.5635 91.3418 21.5635 92.6739 22.1096 93.3581C22.5846 93.9531 23.3048 94.2993 24.0662 94.2984C24.9416 94.2975 25.9818 93.4653 28.0623 91.801L39.9895 82.2592C42.4261 80.3099 43.6443 79.3353 45.0009 78.6423C46.2045 78.0274 47.4856 77.578 48.8096 77.3063C50.3018 77 51.862 77 54.9822 77H67.5635C75.9643 77 80.1647 77 83.3733 75.3651C86.1958 73.927 88.4905 71.6323 89.9286 68.8099C91.5635 65.6012 91.5635 61.4008 91.5635 53V26C91.5635 17.5992 91.5635 13.3988 89.9286 10.1901C88.4905 7.36771 86.1958 5.073 83.3733 3.6349C80.1647 2 75.9643 2 67.5635 2H25.5635C17.1627 2 12.9623 2 9.75362 3.6349C6.93119 5.073 4.63648 7.36771 3.19838 10.1901C1.56348 13.3988 1.56348 17.5992 1.56348 26V57C1.56348 61.6499 1.56348 63.9748 2.07459 65.8823C3.4616 71.0587 7.50481 75.1019 12.6812 76.4889C14.5887 77 16.9136 77 21.5635 77ZM62.8135 24.5C62.8135 25.8807 61.6942 27 60.3135 27C58.9328 27 57.8135 25.8807 57.8135 24.5C57.8135 23.1193 58.9328 22 60.3135 22C61.6942 22 62.8135 23.1193 62.8135 24.5ZM35.3135 24.5C35.3135 25.8807 34.1942 27 32.8135 27C31.4328 27 30.3135 25.8807 30.3135 24.5C30.3135 23.1193 31.4328 22 32.8135 22C34.1942 22 35.3135 23.1193 35.3135 24.5Z" stroke="black" stroke-width="3" stroke-linecap="round" stroke-linejoin="round"/>
</svg>
